<svg xmlns="http://www.w3.org/2000/svg" xmlns:xlink="http://www.w3.org/1999/xlink" width="282" zoomAndPan="magnify" viewBox="0 0 211.5 133.500001" height="178" preserveAspectRatio="xMidYMid meet" version="1.0"><defs><clipPath id="dc77d0e79d"><path d="M 36.707031 1.851562 L 168.214844 1.851562 L 168.214844 128.878906 L 36.707031 128.878906 Z M 36.707031 1.851562 " clip-rule="nonzero"/></clipPath></defs><g clip-path="url(#dc77d0e79d)"><path fill="#ff914d" d="M 155.691406 39.1875 C 156.589844 41.734375 159.007812 43.578125 161.882812 43.578125 C 165.507812 43.578125 168.472656 40.617188 168.472656 36.992188 C 168.472656 33.367188 165.507812 30.402344 161.882812 30.402344 C 159.027344 30.402344 156.613281 32.25 155.691406 34.796875 L 126.746094 34.796875 L 126.746094 26.011719 L 144.3125 26.011719 C 145.523438 26.011719 146.511719 25.023438 146.511719 23.816406 L 146.511719 14.636719 C 149.058594 13.734375 150.902344 11.320312 150.902344 8.441406 C 150.902344 4.820312 147.9375 1.855469 144.3125 1.855469 C 140.691406 1.855469 137.726562 4.820312 137.726562 8.441406 C 137.726562 11.296875 139.570312 13.714844 142.117188 14.636719 L 142.117188 21.621094 L 126.746094 21.621094 L 126.746094 15.03125 C 126.746094 13.824219 125.757812 12.835938 124.550781 12.835938 L 117.960938 12.835938 L 117.960938 8.441406 C 117.960938 7.234375 116.972656 6.246094 115.765625 6.246094 C 114.558594 6.246094 113.570312 7.234375 113.570312 8.441406 L 113.570312 12.835938 L 104.785156 12.835938 L 104.785156 8.441406 C 104.785156 7.234375 103.796875 6.246094 102.589844 6.246094 C 101.382812 6.246094 100.394531 7.234375 100.394531 8.441406 L 100.394531 12.835938 L 91.609375 12.835938 L 91.609375 8.441406 C 91.609375 7.234375 90.621094 6.246094 89.414062 6.246094 C 88.203125 6.246094 87.214844 7.234375 87.214844 8.441406 L 87.214844 12.835938 L 80.628906 12.835938 C 79.421875 12.835938 78.433594 13.824219 78.433594 15.03125 L 78.433594 21.621094 L 63.058594 21.621094 L 63.058594 14.636719 C 65.605469 13.734375 67.453125 11.320312 67.453125 8.441406 C 67.453125 4.820312 64.488281 1.855469 60.863281 1.855469 C 57.238281 1.855469 54.277344 4.820312 54.277344 8.441406 C 54.277344 11.296875 56.121094 13.714844 58.667969 14.636719 L 58.667969 23.816406 C 58.667969 25.023438 59.65625 26.011719 60.863281 26.011719 L 78.433594 26.011719 L 78.433594 34.796875 L 49.488281 34.796875 C 48.585938 32.25 46.171875 30.402344 43.296875 30.402344 C 39.671875 30.402344 36.707031 33.367188 36.707031 36.992188 C 36.707031 40.617188 39.671875 43.578125 43.296875 43.578125 C 46.148438 43.578125 48.566406 41.734375 49.488281 39.1875 L 78.433594 39.1875 L 78.433594 47.972656 L 60.863281 47.972656 C 60.269531 47.972656 59.722656 48.214844 59.304688 48.609375 C 58.886719 49.003906 58.667969 49.574219 58.667969 50.167969 L 58.667969 59.347656 C 56.121094 60.25 54.277344 62.664062 54.277344 65.539062 C 54.277344 69.164062 57.238281 72.128906 60.863281 72.128906 C 64.488281 72.128906 67.453125 69.164062 67.453125 65.539062 C 67.453125 62.6875 65.605469 60.269531 63.058594 59.347656 L 63.058594 52.363281 C 63.058594 52.363281 78.433594 52.363281 78.433594 52.363281 L 78.433594 58.953125 C 78.433594 60.160156 79.421875 61.148438 80.628906 61.148438 L 87.214844 61.148438 L 87.214844 76.519531 L 69.648438 76.519531 C 68.441406 76.519531 67.453125 77.507812 67.453125 78.71875 L 67.453125 85.304688 L 43.296875 85.304688 C 42.085938 85.304688 41.097656 86.292969 41.097656 87.5 L 41.097656 127.03125 C 41.097656 128.238281 42.085938 129.226562 43.296875 129.226562 L 96 129.226562 C 97.207031 129.226562 98.195312 128.238281 98.195312 127.03125 L 98.195312 87.5 C 98.195312 86.292969 97.207031 85.304688 96 85.304688 L 71.84375 85.304688 L 71.84375 80.914062 L 89.414062 80.914062 C 90.621094 80.914062 91.609375 79.925781 91.609375 78.71875 L 91.609375 61.148438 L 100.394531 61.148438 L 100.394531 65.539062 C 100.394531 66.75 101.382812 67.738281 102.589844 67.738281 C 103.796875 67.738281 104.785156 66.75 104.785156 65.539062 L 104.785156 61.148438 L 113.570312 61.148438 L 113.570312 78.71875 C 113.570312 79.925781 114.558594 80.914062 115.765625 80.914062 L 133.335938 80.914062 L 133.335938 85.304688 L 109.175781 85.304688 C 107.96875 85.304688 106.980469 86.292969 106.980469 87.5 L 106.980469 127.03125 C 106.980469 128.238281 107.96875 129.226562 109.175781 129.226562 L 161.882812 129.226562 C 163.089844 129.226562 164.078125 128.238281 164.078125 127.03125 L 164.078125 87.5 C 164.078125 86.292969 163.089844 85.304688 161.882812 85.304688 L 137.726562 85.304688 L 137.726562 78.71875 C 137.726562 77.507812 136.738281 76.519531 135.53125 76.519531 L 117.960938 76.519531 L 117.960938 61.148438 L 124.550781 61.148438 C 125.757812 61.148438 126.746094 60.160156 126.746094 58.953125 L 126.746094 52.363281 L 142.117188 52.363281 L 142.117188 59.347656 C 139.570312 60.25 137.726562 62.664062 137.726562 65.539062 C 137.726562 69.164062 140.691406 72.128906 144.3125 72.128906 C 147.9375 72.128906 150.902344 69.164062 150.902344 65.539062 C 150.902344 62.6875 149.058594 60.269531 146.511719 59.347656 L 146.511719 50.167969 C 146.511719 49.597656 146.289062 49.027344 145.875 48.609375 C 145.457031 48.191406 144.90625 47.972656 144.3125 47.972656 L 126.746094 47.972656 L 126.746094 39.1875 Z M 161.882812 34.796875 C 163.089844 34.796875 164.078125 35.785156 164.078125 36.992188 C 164.078125 38.199219 163.089844 39.1875 161.882812 39.1875 C 160.675781 39.1875 159.6875 38.199219 159.6875 36.992188 C 159.6875 35.785156 160.675781 34.796875 161.882812 34.796875 Z M 142.117188 8.441406 C 142.117188 7.234375 143.105469 6.246094 144.3125 6.246094 C 145.523438 6.246094 146.511719 7.234375 146.511719 8.441406 C 146.511719 9.652344 145.523438 10.640625 144.3125 10.640625 C 143.105469 10.640625 142.117188 9.652344 142.117188 8.441406 Z M 60.863281 10.640625 C 59.65625 10.640625 58.667969 9.652344 58.667969 8.441406 C 58.667969 7.234375 59.65625 6.246094 60.863281 6.246094 C 62.070312 6.246094 63.058594 7.234375 63.058594 8.441406 C 63.058594 9.652344 62.070312 10.640625 60.863281 10.640625 Z M 43.296875 39.1875 C 42.085938 39.1875 41.097656 38.199219 41.097656 36.992188 C 41.097656 35.785156 42.085938 34.796875 43.296875 34.796875 C 44.503906 34.796875 45.492188 35.785156 45.492188 36.992188 C 45.492188 38.199219 44.503906 39.1875 43.296875 39.1875 Z M 63.058594 65.539062 C 63.058594 66.75 62.070312 67.738281 60.863281 67.738281 C 59.65625 67.738281 58.667969 66.75 58.667969 65.539062 C 58.667969 64.332031 59.65625 63.34375 60.863281 63.34375 C 62.070312 63.34375 63.058594 64.332031 63.058594 65.539062 Z M 93.804688 89.699219 L 93.804688 124.835938 L 45.492188 124.835938 L 45.492188 89.699219 Z M 159.6875 89.699219 L 159.6875 124.835938 L 111.375 124.835938 L 111.375 89.699219 Z M 122.355469 56.757812 L 82.824219 56.757812 L 82.824219 17.226562 L 122.355469 17.226562 Z M 144.3125 63.34375 C 145.523438 63.34375 146.511719 64.332031 146.511719 65.539062 C 146.511719 66.75 145.523438 67.738281 144.3125 67.738281 C 143.105469 67.738281 142.117188 66.75 142.117188 65.539062 C 142.117188 64.332031 143.105469 63.34375 144.3125 63.34375 Z M 144.3125 63.34375 " fill-opacity="1" fill-rule="nonzero"/></g><path fill="#ff914d" d="M 88.535156 47.796875 C 89.632812 48.28125 90.929688 47.796875 91.433594 46.65625 L 92.773438 43.578125 L 101.425781 43.578125 L 102.765625 46.65625 C 103.117188 47.488281 103.929688 47.972656 104.785156 47.972656 C 105.070312 47.972656 105.378906 47.90625 105.664062 47.796875 C 106.785156 47.3125 107.289062 46.019531 106.804688 44.898438 L 99.121094 27.328125 C 98.769531 26.539062 97.976562 26.011719 97.097656 26.011719 C 96.21875 26.011719 95.429688 26.539062 95.078125 27.328125 L 87.390625 44.898438 C 86.910156 46.019531 87.390625 47.292969 88.535156 47.796875 Z M 97.097656 33.699219 L 99.515625 39.1875 L 94.707031 39.1875 L 97.121094 33.699219 Z M 97.097656 33.699219 " fill-opacity="1" fill-rule="nonzero"/><path fill="#ff914d" d="M 113.570312 47.972656 C 114.777344 47.972656 115.765625 46.984375 115.765625 45.777344 L 115.765625 28.207031 C 115.765625 27 114.777344 26.011719 113.570312 26.011719 C 112.363281 26.011719 111.375 27 111.375 28.207031 L 111.375 45.777344 C 111.375 46.984375 112.363281 47.972656 113.570312 47.972656 Z M 113.570312 47.972656 " fill-opacity="1" fill-rule="nonzero"/><path fill="#ff914d" d="M 120.15625 100.679688 L 135.53125 100.679688 C 136.738281 100.679688 137.726562 99.691406 137.726562 98.480469 C 137.726562 97.273438 136.738281 96.285156 135.53125 96.285156 L 120.15625 96.285156 C 118.949219 96.285156 117.960938 97.273438 117.960938 98.480469 C 117.960938 99.691406 118.949219 100.679688 120.15625 100.679688 Z M 120.15625 100.679688 " fill-opacity="1" fill-rule="nonzero"/><path fill="#ff914d" d="M 120.15625 109.460938 L 150.902344 109.460938 C 152.109375 109.460938 153.097656 108.472656 153.097656 107.265625 C 153.097656 106.058594 152.109375 105.070312 150.902344 105.070312 L 120.15625 105.070312 C 118.949219 105.070312 117.960938 106.058594 117.960938 107.265625 C 117.960938 108.472656 118.949219 109.460938 120.15625 109.460938 Z M 120.15625 109.460938 " fill-opacity="1" fill-rule="nonzero"/><path fill="#ff914d" d="M 120.15625 118.246094 L 150.902344 118.246094 C 152.109375 118.246094 153.097656 117.257812 153.097656 116.050781 C 153.097656 114.84375 152.109375 113.855469 150.902344 113.855469 L 120.15625 113.855469 C 118.949219 113.855469 117.960938 114.84375 117.960938 116.050781 C 117.960938 117.257812 118.949219 118.246094 120.15625 118.246094 Z M 120.15625 118.246094 " fill-opacity="1" fill-rule="nonzero"/><path fill="#ff914d" d="M 69.648438 118.246094 C 70.855469 118.246094 71.84375 117.257812 71.84375 116.050781 L 71.84375 98.480469 C 71.84375 97.273438 70.855469 96.285156 69.648438 96.285156 C 68.441406 96.285156 67.453125 97.273438 67.453125 98.480469 L 67.453125 116.050781 C 67.453125 117.257812 68.441406 118.246094 69.648438 118.246094 Z M 69.648438 118.246094 " fill-opacity="1" fill-rule="nonzero"/><path fill="#ff914d" d="M 60.863281 116.050781 C 62.070312 116.050781 63.058594 115.0625 63.058594 113.855469 L 63.058594 100.679688 C 63.058594 99.46875 62.070312 98.480469 60.863281 98.480469 C 59.65625 98.480469 58.667969 99.46875 58.667969 100.679688 L 58.667969 113.855469 C 58.667969 115.0625 59.65625 116.050781 60.863281 116.050781 Z M 60.863281 116.050781 " fill-opacity="1" fill-rule="nonzero"/><path fill="#ff914d" d="M 78.433594 116.050781 C 79.640625 116.050781 80.628906 115.0625 80.628906 113.855469 L 80.628906 100.679688 C 80.628906 99.46875 79.640625 98.480469 78.433594 98.480469 C 77.222656 98.480469 76.234375 99.46875 76.234375 100.679688 L 76.234375 113.855469 C 76.234375 115.0625 77.222656 116.050781 78.433594 116.050781 Z M 78.433594 116.050781 " fill-opacity="1" fill-rule="nonzero"/><path fill="#ff914d" d="M 52.078125 111.65625 C 53.289062 111.65625 54.277344 110.671875 54.277344 109.460938 L 54.277344 105.070312 C 54.277344 103.863281 53.289062 102.875 52.078125 102.875 C 50.871094 102.875 49.882812 103.863281 49.882812 105.070312 L 49.882812 109.460938 C 49.882812 110.671875 50.871094 111.65625 52.078125 111.65625 Z M 52.078125 111.65625 " fill-opacity="1" fill-rule="nonzero"/><path fill="#ff914d" d="M 87.214844 111.65625 C 88.425781 111.65625 89.414062 110.671875 89.414062 109.460938 L 89.414062 105.070312 C 89.414062 103.863281 88.425781 102.875 87.214844 102.875 C 86.007812 102.875 85.019531 103.863281 85.019531 105.070312 L 85.019531 109.460938 C 85.019531 110.671875 86.007812 111.65625 87.214844 111.65625 Z M 87.214844 111.65625 " fill-opacity="1" fill-rule="nonzero"/></svg>